<svg version="1.1" id="Layer_1" xmlns="http://www.w3.org/2000/svg" xmlns:xlink="http://www.w3.org/1999/xlink"
	 viewBox="200 308 628 408" xml:space="preserve">
  <defs>
    <linearGradient id="brand-grad" x1="0%" y1="0%" x2="100%" y2="100%">
      <stop offset="0%"   stop-color="#c96442"/>
      <stop offset="100%" stop-color="#a44d31"/>
    </linearGradient>
  </defs>

<!-- Main "hm" lettermark — terracotta gradient -->
<path fill="url(#brand-grad)" opacity="1.000000" stroke="none"
	d="
M377.825562,703.292969
	C361.226685,702.811951 345.102234,704.300964 329.002472,701.434326
	C286.990112,693.953857 250.421951,656.974976 243.522751,614.605164
	C242.258545,606.841309 241.645020,599.104004 241.648544,591.257019
	C241.687988,503.102814 241.673965,414.948639 241.676971,326.794434
	C241.677216,319.667053 241.686462,319.640564 248.725998,319.654083
	C302.520294,319.757263 356.314636,319.855072 410.108856,319.990692
	C431.517578,320.044647 449.373749,327.777466 462.915527,344.694946
	C463.520691,345.450958 463.964874,346.419861 465.455414,346.610443
	C467.543396,341.583893 466.526764,336.247650 466.591736,331.064056
	C466.734833,319.651672 466.626678,319.630951 477.910461,319.652863
	C530.202271,319.754517 582.494324,319.821167 634.785889,319.994141
	C666.974548,320.100647 691.763245,338.957581 698.767395,368.408173
	C700.127380,374.126953 700.366821,379.914093 700.364624,385.761414
	C700.336304,460.250763 700.352478,534.740112 700.357239,609.229492
	C700.357422,612.682251 700.357178,616.135071 700.357178,619.587830
	C706.941589,608.495056 715.064087,599.578674 726.252014,593.484131
	C764.412476,572.696411 811.232788,600.338196 811.334595,643.787415
	C811.408081,675.154175 788.013489,700.611511 756.564148,702.004761
	C725.108765,703.398315 699.590515,680.220764 696.502869,650.804993
	C695.703430,643.189087 696.529663,635.895386 698.277710,628.585144
	C698.807861,626.368164 699.859558,624.365662 696.922607,622.634094
	C695.091370,621.554382 695.905457,618.937561 695.903748,616.989075
	C695.860962,567.163086 695.730103,517.336670 695.897156,467.511322
	C695.958435,449.230499 689.600952,433.995941 675.987488,421.898193
	C665.212036,412.322449 652.329773,407.823120 638.034668,407.447327
	C629.042053,407.210907 620.034851,407.542175 611.041443,407.321655
	C607.235352,407.228333 606.183167,408.678802 606.233765,412.293304
	C606.406189,424.622559 606.318726,436.955566 606.319458,449.287140
	C606.324402,531.442200 606.327148,613.597229 606.328430,695.752258
	C606.328552,703.317993 606.316528,703.499329 598.617126,703.298401
	C584.000427,702.916931 569.335876,704.481995 554.781921,701.483582
	C517.671448,693.838135 491.366791,672.695007 475.587585,638.434021
	C469.237915,624.647095 466.536926,610.046936 466.591492,594.796021
	C466.761932,547.136719 466.489563,499.475342 466.807678,451.817535
	C466.860321,443.933838 464.515778,437.528259 460.005371,431.525696
	C448.072296,415.644836 431.946899,407.960480 412.296051,407.425079
	C404.302948,407.207275 396.299286,407.375153 388.300415,407.372589
	C381.339722,407.370331 381.340546,407.373474 381.341797,414.191864
	C381.353607,478.016174 381.370148,541.840515 381.374481,605.664795
	C381.376526,636.327026 381.375366,666.989258 381.303253,697.651306
	C381.297974,699.899231 382.349182,703.033142 377.825562,703.292969
M603.776428,394.927948
	C605.471375,402.930878 605.471375,402.932343 613.681335,402.938324
	C621.008606,402.943695 628.336548,402.884308 635.663086,402.960632
	C654.495972,403.156860 670.868530,409.252655 683.925110,423.236450
	C688.589539,428.232117 691.977539,434.098877 695.675110,440.886841
	C695.780762,439.180267 695.868652,438.418701 695.869019,437.657043
	C695.877686,419.338959 695.911499,401.020721 695.846191,382.702881
	C695.834412,379.388794 695.777649,376.000580 695.116577,372.774689
	C689.114136,343.485138 666.862671,324.937866 636.221619,324.517853
	C605.027344,324.090210 573.822693,324.423309 542.622559,324.423309
	C574.043396,338.313049 595.069153,360.683167 603.776428,394.927948
M347.500580,342.961487
	C364.124298,357.436768 374.944916,375.389313 379.302887,397.016327
	C380.251617,401.724304 382.199158,403.273315 386.940430,403.037689
	C394.747589,402.649658 402.588806,402.910278 410.415344,402.956329
	C431.019196,403.077637 448.426117,410.214111 461.724976,426.375366
	C462.619598,427.462555 463.311005,429.017151 465.259888,428.806122
	C466.776093,426.813477 466.626190,424.451721 466.629211,422.163116
	C466.654785,402.679504 466.640533,383.195831 466.661621,363.712189
	C466.663818,361.693695 466.551361,359.736969 465.605438,357.889282
	C456.050110,339.224854 441.140411,327.053528 420.163147,325.434113
	C386.368896,322.825287 352.452850,324.831970 318.533234,324.881409
	C328.693604,329.887909 338.433289,335.198364 347.500580,342.961487
z"/>

<!-- Decorative side marks — ink dark -->
<path fill="#1c1915" opacity="0.70" stroke="none"
	d="
M217.356537,588.250549
	C215.303024,586.924316 212.418304,586.495972 213.218582,583.292053
	C213.938568,580.409607 216.575607,581.237488 218.593124,580.976196
	C219.082230,580.912842 219.584503,580.949036 220.080765,580.943481
	C228.984421,580.843750 229.799042,581.840698 227.264282,590.541382
	C226.958588,591.590698 227.176346,591.888245 227.679504,592.488953
	C228.269318,593.193115 228.432297,594.308655 227.879608,594.787903
	C224.747070,597.503723 220.935455,595.751526 217.435196,596.117737
	C215.807938,596.287964 213.993958,596.167542 213.316223,594.168579
	C212.015076,590.330872 216.130630,590.404358 217.356537,588.250549
z"/>
<path fill="#1c1915" opacity="0.70" stroke="none"
	d="
M215.856232,342.391479
	C216.696274,341.936920 217.234848,341.618317 217.818680,341.272949
	C217.003952,339.804504 215.516678,339.775665 214.457382,339.075531
	C213.160461,338.218384 212.909622,336.971558 213.247696,335.572388
	C213.573837,334.222595 214.618225,333.751770 215.878769,333.743958
	C219.826935,333.719543 223.775330,333.734955 228.754196,333.734955
	C225.865509,337.112396 230.542389,340.889374 226.439148,343.466797
	C226.314987,343.544769 226.193069,343.736603 226.188690,343.878967
	C226.051544,348.347351 226.053818,348.347076 221.585068,348.356171
	C220.086731,348.359192 218.587830,348.391510 217.090195,348.361420
	C215.428177,348.328064 213.599686,348.483459 213.165863,346.235382
	C212.789536,344.285156 213.597260,343.015381 215.856232,342.391479
z"/>
<path fill="#1c1915" opacity="0.70" stroke="none"
	d="
M225.693344,525.271362
	C222.611450,525.367493 219.949097,525.517761 217.293076,525.442993
	C215.721848,525.398743 213.722458,525.758484 213.204208,523.524109
	C212.784485,521.714478 214.191803,520.868958 215.442978,520.015747
	C216.237762,519.473755 217.027908,518.924927 217.983536,518.266541
	C216.035950,517.687378 213.052353,518.579529 213.493149,515.491516
	C213.841736,513.049377 216.387665,513.890137 218.090042,513.748352
	C219.576889,513.624451 221.090179,513.615051 222.576477,513.738892
	C224.459137,513.895752 226.915222,512.942261 227.920410,515.283569
	C229.130463,518.102112 225.963058,518.645630 224.754532,520.231079
	C225.422913,521.862305 231.563446,522.025696 225.693344,525.271362
z"/>
<path fill="#1c1915" opacity="0.70" stroke="none"
	d="
M214.252777,496.370056
	C219.922745,492.040680 224.822952,494.539795 229.759460,496.960205
	C228.073486,506.380402 224.164917,507.065643 217.319031,505.742401
	C213.123001,504.931305 212.158447,501.668640 214.252777,496.370056
M222.462341,499.725159
	C220.392349,497.384003 218.669739,497.972778 216.500977,500.733093
	C218.920334,501.576385 220.681061,502.793213 222.462341,499.725159
z"/>
<path fill="#1c1915" opacity="0.70" stroke="none"
	d="
M220.346527,356.685242
	C222.859146,358.325012 225.194229,356.899231 227.417099,357.119995
	C229.635757,360.396881 226.275482,360.841064 224.778183,362.259583
	C226.112457,363.098907 228.493256,362.778137 227.992691,365.226929
	C227.541245,367.435486 225.605499,367.155914 224.011032,367.249359
	C222.529922,367.336182 221.038605,367.290619 219.553101,367.252014
	C216.511978,367.172974 212.866486,368.087311 212.899826,363.046661
	C212.931320,358.286560 214.730835,356.596436 220.346527,356.685242
z"/>
<path fill="#1c1915" opacity="0.70" stroke="none"
	d="
M213.107498,536.551575
	C213.030609,528.461487 215.066116,526.725891 221.922409,529.023071
	C223.993744,529.717102 225.738480,527.714661 227.690125,528.944458
	C229.330048,531.702881 226.560455,532.473816 225.277390,533.926453
	C226.138824,535.023560 228.551132,534.660156 227.976547,536.854553
	C227.475098,538.769653 225.536926,538.998291 224.363693,538.606689
	C220.708649,537.386658 216.373962,540.966614 213.107498,536.551575
z"/>
<path fill="#1c1915" opacity="0.70" stroke="none"
	d="
M219.157501,471.251740
	C216.613037,471.122253 214.105316,471.764771 213.242798,469.005493
	C212.460785,466.503784 212.934265,463.973602 214.571182,461.961731
	C216.100677,460.081879 218.468063,459.786224 220.461472,460.902466
	C222.799362,462.211578 224.971191,461.160828 227.323807,461.096191
	C229.547348,464.159637 226.759918,464.948853 224.900406,466.216248
	C226.064941,467.196808 228.462784,466.816467 228.045776,469.207336
	C227.694168,471.223083 226.063202,471.163849 224.589294,471.227173
	C222.936386,471.298218 221.278259,471.247650 219.157501,471.251740
z"/>
<path fill="#1c1915" opacity="0.70" stroke="none"
	d="
M225.620667,453.732941
	C227.243576,453.874573 228.148911,454.469757 228.087387,455.929474
	C228.028061,457.337219 227.086441,458.044525 225.799759,458.072205
	C222.478867,458.143646 219.155106,458.122467 215.833160,458.082489
	C214.780472,458.069855 213.241043,457.097931 213.558197,456.648743
	C215.666595,453.662170 212.393066,450.698700 213.832520,446.767731
	C218.330322,452.104462 222.903885,449.352081 227.233200,447.043915
	C229.276550,450.903015 226.550537,451.684967 224.865845,453.007904
	C224.793182,453.064941 224.820496,453.356964 224.899933,453.470398
	C224.982834,453.588867 225.185257,453.623657 225.620667,453.732941
z"/>
<path fill="#1c1915" opacity="0.70" stroke="none"
	d="
M220.002884,480.663269
	C223.358017,480.793549 226.653702,479.991211 228.108551,483.689880
	C229.755920,487.877930 227.701675,491.548889 223.263733,492.029785
	C220.813278,492.295288 218.302704,492.116302 215.826523,491.992096
	C214.368225,491.919006 213.188385,491.154419 213.374954,489.500183
	C213.533783,488.091736 214.786118,487.908905 215.987259,487.715607
	C218.634201,487.289551 221.546585,488.462067 224.358383,486.463379
	C222.285080,484.235596 219.798248,485.286530 217.718109,484.777771
	C216.094879,484.380707 213.358902,485.031647 213.567719,482.430817
	C213.770645,479.903320 216.400406,480.937317 218.057922,480.677490
	C218.543121,480.601471 219.050064,480.664062 220.002884,480.663269
z"/>
<path fill="#1c1915" opacity="0.70" stroke="none"
	d="
M220.968658,552.993774
	C223.714752,553.255188 225.979706,553.630554 227.380554,555.874695
	C230.138702,560.293274 228.124527,564.249939 222.923706,564.540588
	C221.774261,564.604858 220.578415,564.705078 219.470657,564.471802
	C217.041046,563.960266 213.226196,565.748596 213.026489,561.182739
	C212.843002,556.988098 214.125839,553.616577 219.080490,553.161987
	C219.573883,553.116699 220.065384,553.050842 220.968658,552.993774
M218.473755,560.411255
	C220.464493,560.525146 222.623260,561.434448 224.866150,558.576599
	C221.840347,557.757019 219.395660,555.015686 218.473755,560.411255
z"/>
<path fill="#1c1915" opacity="0.70" stroke="none"
	d="
M213.462830,575.268555
	C212.294754,572.018250 212.933655,569.470154 215.581635,568.005920
	C218.982910,566.125061 222.681229,566.191345 226.115143,568.019958
	C228.562500,569.323181 228.524948,571.842957 228.201797,574.196289
	C227.869980,576.612732 226.318146,578.049683 223.918381,578.394165
	C220.117447,578.939636 216.243835,579.595764 213.462830,575.268555
M217.510742,573.739502
	C219.962830,575.027039 222.290115,575.418579 225.231049,572.150574
	C221.799988,571.708313 219.338455,569.436462 217.510742,573.739502
z"/>
<path fill="#1c1915" opacity="0.70" stroke="none"
	d="
M219.190887,550.939392
	C214.591797,551.282410 212.337280,549.694458 212.882812,545.236023
	C213.073685,543.676147 212.500031,541.493286 214.821442,541.281738
	C216.815399,541.100037 216.845856,543.038452 217.164490,544.483032
	C217.255646,544.896362 217.576233,545.259033 217.817978,545.692200
	C219.375870,544.811768 218.181519,542.018555 220.613647,542.046387
	C223.162552,542.075500 221.687119,545.382141 223.621597,545.915527
	C224.670364,545.512878 224.590317,544.626160 224.669128,543.830017
	C224.787628,542.633057 224.914185,541.312927 226.481659,541.348816
	C228.418961,541.393127 228.147491,543.047791 228.282272,544.309509
	C228.947556,550.537537 228.256470,551.064331 219.190887,550.939392
z"/>
<path fill="#1c1915" opacity="0.70" stroke="none"
	d="
M214.538849,378.887482
	C212.892334,377.558838 212.819489,376.036255 212.887955,374.538544
	C212.968094,372.785980 212.305267,370.351471 214.532501,369.769073
	C217.654816,368.952667 216.559601,372.447388 217.802551,373.761444
	C219.299423,373.141937 218.292740,370.249023 220.832962,370.574280
	C223.142288,370.869995 221.888977,373.563629 223.491669,374.254547
	C223.795547,374.063660 224.142242,373.957092 224.309052,373.722595
	C225.229416,372.428589 223.722763,369.420868 226.759323,369.735016
	C228.809372,369.947144 228.332321,372.047882 228.258362,373.425140
	C228.136337,375.697296 229.336914,378.936859 225.410538,379.166901
	C221.935822,379.370514 218.434814,379.125824 214.538849,378.887482
z"/>
<path fill="#1c1915" opacity="0.70" stroke="none"
	d="
M227.946930,413.789948
	C223.711182,416.386932 219.396103,415.162079 215.193832,415.035706
	C213.400909,414.981750 212.955170,413.263794 212.931656,411.694000
	C212.902405,409.741455 212.379547,407.581818 213.932861,406.014282
	C215.296722,404.637939 216.534149,405.824799 217.660660,409.813080
	C219.272720,409.088379 218.410629,405.953857 220.915131,406.377533
	C223.179703,406.760590 221.977493,409.300049 223.332901,410.242371
	C223.659439,410.111755 224.046646,410.076874 224.225250,409.865631
	C225.266113,408.634674 223.708847,405.478485 226.647369,405.858521
	C229.220398,406.191284 228.064285,408.761597 228.276993,410.402832
	C228.402008,411.367340 228.184860,412.376251 227.946930,413.789948
z"/>
<path fill="#1c1915" opacity="0.70" stroke="none"
	d="
M213.197769,443.282928
	C213.510788,441.182648 215.254654,440.946228 216.603973,439.781311
	C215.511642,438.158722 211.972137,437.745239 213.715393,434.238861
	C218.428741,434.459686 222.385239,437.746490 227.145248,438.160767
	C228.552475,438.283203 228.575455,440.962891 227.194229,441.131073
	C222.676208,441.681335 218.868195,444.323822 214.445450,444.921997
	C214.093338,444.969635 213.615067,444.084717 213.197769,443.282928
z"/>
<path fill="#1c1915" opacity="0.70" stroke="none"
	d="
M213.003952,395.574646
	C213.416626,393.936646 214.523666,392.584930 215.433685,393.540436
	C218.237198,396.484070 221.753616,395.872253 225.127640,396.245941
	C226.411346,396.388153 227.954514,396.581177 227.944519,398.402039
	C227.933975,400.321289 226.363617,400.212830 225.068420,400.311829
	C221.750961,400.565369 218.210083,399.490021 215.710861,403.208832
	C214.904053,404.409363 213.271652,402.921173 213.100372,401.433441
	C212.892914,399.631500 212.986420,397.794952 213.003952,395.574646
z"/>
<path fill="#1c1915" opacity="0.70" stroke="none"
	d="
M218.197937,384.238831
	C220.860077,384.513885 223.172333,384.578796 225.479889,384.720215
	C226.660278,384.792542 227.921341,384.996552 227.901962,386.568176
	C227.886856,387.795074 226.893066,388.148041 225.855972,388.278961
	C222.277542,388.730835 218.225769,387.315704 215.546738,391.281494
	C215.027328,392.050385 213.437241,391.246735 213.299606,390.196869
	C212.907394,387.204956 211.917984,384.041199 214.322754,381.514008
	C216.628479,381.154572 216.719467,383.258759 218.197937,384.238831
z"/>
<path fill="#1c1915" opacity="0.70" stroke="none"
	d="
M218.239532,426.354492
	C216.132889,426.080353 213.439468,427.045197 213.469803,424.400787
	C213.501968,421.598053 216.319733,422.308960 218.140121,422.164398
	C220.991623,421.937927 224.723663,423.780914 225.012207,418.479950
	C225.083389,417.172089 226.829910,416.801880 227.654709,418.028839
	C228.928741,419.924072 228.357941,422.208740 228.120651,424.312195
	C227.894897,426.313202 226.160736,426.270020 224.665268,426.311005
	C222.677032,426.365540 220.686707,426.344238 218.239532,426.354492
z"/>
<path fill="#1c1915" opacity="0.70" stroke="none"
	d="
M226.329727,477.846191
	C222.591904,477.965332 219.271988,478.043457 215.956940,477.949829
	C214.534302,477.909668 213.267075,477.225555 213.435455,475.522766
	C213.575012,474.111664 214.784286,473.728790 216.010025,473.694977
	C219.162842,473.607910 222.340347,473.326385 225.464676,473.606201
	C228.523514,473.880157 229.287857,475.432983 226.329727,477.846191
z"/>
</svg>
